<svg width="24" height="24" viewBox="0 0 24 24" fill="none" xmlns="http://www.w3.org/2000/svg">
<path fill-rule="evenodd" clip-rule="evenodd" d="M12.33 7C9.09133 7.00199 6.18368 8.98538 5 12C6.17976 15.0184 9.08921 17.005 12.33 17.005C15.5708 17.005 18.4802 15.0184 19.66 12C18.4763 8.98538 15.5687 7.00199 12.33 7ZM12.33 15.33C10.4909 15.33 9 13.8391 9 12C9 10.1609 10.4909 8.67 12.33 8.67C14.1691 8.67 15.66 10.1609 15.66 12C15.66 13.8391 14.1691 15.33 12.33 15.33ZM10.33 12C10.33 10.8954 11.2254 10 12.33 10C13.4346 10 14.33 10.8954 14.33 12C14.33 13.1046 13.4346 14 12.33 14C11.2254 14 10.33 13.1046 10.33 12Z" fill="#154281"/>
<mask id="mask0" mask-type="alpha" maskUnits="userSpaceOnUse" x="5" y="7" width="15" height="11">
<path fill-rule="evenodd" clip-rule="evenodd" d="M12.33 7C9.09133 7.00199 6.18368 8.98538 5 12C6.17976 15.0184 9.08921 17.005 12.33 17.005C15.5708 17.005 18.4802 15.0184 19.66 12C18.4763 8.98538 15.5687 7.00199 12.33 7ZM12.33 15.33C10.4909 15.33 9 13.8391 9 12C9 10.1609 10.4909 8.67 12.33 8.67C14.1691 8.67 15.66 10.1609 15.66 12C15.66 13.8391 14.1691 15.33 12.33 15.33ZM10.33 12C10.33 10.8954 11.2254 10 12.33 10C13.4346 10 14.33 10.8954 14.33 12C14.33 13.1046 13.4346 14 12.33 14C11.2254 14 10.33 13.1046 10.33 12Z" fill="white"/>
</mask>
<g mask="url(#mask0)">
</g>
</svg>
