<svg width="10" height="12" viewBox="0 0 10 12" fill="none" xmlns="http://www.w3.org/2000/svg">
<path fill-rule="evenodd" clip-rule="evenodd" d="M9.31987 10.5607V6.2407C9.33365 6.05403 9.26833 5.87017 9.13987 5.73404C9.00508 5.59578 8.8196 5.5187 8.62653 5.5207H8.38653V4.0807C8.38653 2.22503 6.88221 0.720703 5.02653 0.720703C3.17086 0.720703 1.66653 2.22503 1.66653 4.0807V5.5207H1.39987C1.2068 5.5187 1.02131 5.59578 0.886533 5.73404C0.748313 5.86557 0.673076 6.05002 0.679866 6.2407V10.5607C0.673076 10.7514 0.748313 10.9358 0.886533 11.0674C1.02131 11.2056 1.2068 11.2827 1.39987 11.2807H8.59987C8.79294 11.2827 8.97842 11.2056 9.1132 11.0674C9.25142 10.9358 9.32666 10.7514 9.31987 10.5607ZM6.91988 4.08073V5.52073H3.07988V4.08073C3.07988 3.02035 3.9395 2.16073 4.99988 2.16073C6.06027 2.16073 6.91988 3.02035 6.91988 4.08073Z" fill="#979797"/>
</svg>
